<svg width="28" height="28" viewBox="0 0 28 28" fill="none" xmlns="http://www.w3.org/2000/svg">
<path fill-rule="evenodd" clip-rule="evenodd" d="M4.87668 3.20825C3.95528 3.20825 3.20834 3.95519 3.20834 4.87658V7.29155H7.29164V3.20825H4.87668ZM4.87668 1.45825C2.98878 1.45825 1.45834 2.98869 1.45834 4.87658V23.1233C1.45834 25.0111 2.98878 26.5416 4.87668 26.5416H23.1233C25.0112 26.5416 26.5417 25.0111 26.5417 23.1233V4.87658C26.5417 2.98869 25.0112 1.45825 23.1233 1.45825H4.87668ZM9.04164 3.20825V8.15832C9.04166 8.16106 9.04168 8.1638 9.04168 8.16655C9.04168 8.16929 9.04166 8.17203 9.04164 8.17477V13.1249H18.9583V3.20825H9.04164ZM20.7083 3.20825V7.29155H24.7917V4.87658C24.7917 3.95519 24.0447 3.20825 23.1233 3.20825H20.7083ZM24.7917 9.04155H20.7083V13.1249H24.7917V9.04155ZM24.7917 14.8749H20.7083V18.9583H24.7917V14.8749ZM24.7917 20.7083H20.7083V24.7916H23.1233C24.0447 24.7916 24.7917 24.0446 24.7917 23.1233V20.7083ZM18.9583 24.7916V14.8749H9.04164V19.825C9.04166 19.8278 9.04168 19.8305 9.04168 19.8333C9.04168 19.836 9.04166 19.8387 9.04164 19.8415V24.7916H18.9583ZM7.29164 24.7916V20.7083H3.20834V23.1233C3.20834 24.0446 3.95528 24.7916 4.87668 24.7916H7.29164ZM3.20834 18.9583H7.29164V14.8749H3.20834V18.9583ZM3.20834 13.1249H7.29164V9.04155H3.20834V13.1249Z" fill="white"/>
</svg>
